<mxfile host="Electron" agent="Mozilla/5.0 (Windows NT 10.0; Win64; x64) AppleWebKit/537.36 (KHTML, like Gecko) draw.io/26.2.2 Chrome/134.0.6998.178 Electron/35.1.2 Safari/537.36" version="26.2.2">
  <diagram name="architecture-C2" id="GZnbM6mygxVZR5ehNbnh">
    <mxGraphModel dx="1040" dy="645" grid="1" gridSize="10" guides="1" tooltips="1" connect="1" arrows="1" fold="1" page="1" pageScale="1" pageWidth="827" pageHeight="1169" math="0" shadow="0">
      <root>
        <mxCell id="0" />
        <mxCell id="1" parent="0" />
        <mxCell id="vdwwtFvCIrxCooRe47AT-79" style="edgeStyle=orthogonalEdgeStyle;rounded=0;orthogonalLoop=1;jettySize=auto;html=1;entryX=0.5;entryY=1;entryDx=0;entryDy=0;exitX=0.75;exitY=1;exitDx=0;exitDy=0;" edge="1" parent="1" source="vdwwtFvCIrxCooRe47AT-15" target="vdwwtFvCIrxCooRe47AT-75">
          <mxGeometry relative="1" as="geometry" />
        </mxCell>
        <mxCell id="vdwwtFvCIrxCooRe47AT-22" value="desired implementation" style="rounded=0;whiteSpace=wrap;html=1;fillColor=none;labelPosition=center;verticalLabelPosition=top;align=center;verticalAlign=bottom;" vertex="1" parent="1">
          <mxGeometry x="450" y="620" width="300" height="180" as="geometry" />
        </mxCell>
        <mxCell id="vdwwtFvCIrxCooRe47AT-21" value="current implementation" style="rounded=0;whiteSpace=wrap;html=1;fillColor=none;labelPosition=center;verticalLabelPosition=top;align=center;verticalAlign=bottom;" vertex="1" parent="1">
          <mxGeometry x="90" y="620" width="300" height="180" as="geometry" />
        </mxCell>
        <mxCell id="vdwwtFvCIrxCooRe47AT-5" value="Bus" style="rounded=0;whiteSpace=wrap;html=1;" vertex="1" parent="1">
          <mxGeometry x="124" y="500" width="580" height="60" as="geometry" />
        </mxCell>
        <mxCell id="vdwwtFvCIrxCooRe47AT-8" style="edgeStyle=orthogonalEdgeStyle;rounded=0;orthogonalLoop=1;jettySize=auto;html=1;entryX=0.5;entryY=0;entryDx=0;entryDy=0;" edge="1" parent="1" source="vdwwtFvCIrxCooRe47AT-6" target="vdwwtFvCIrxCooRe47AT-5">
          <mxGeometry relative="1" as="geometry" />
        </mxCell>
        <mxCell id="vdwwtFvCIrxCooRe47AT-6" value="Agent A" style="rounded=0;whiteSpace=wrap;html=1;" vertex="1" parent="1">
          <mxGeometry x="164" y="370" width="120" height="60" as="geometry" />
        </mxCell>
        <mxCell id="vdwwtFvCIrxCooRe47AT-7" value="Agent B" style="rounded=0;whiteSpace=wrap;html=1;" vertex="1" parent="1">
          <mxGeometry x="354" y="370" width="120" height="60" as="geometry" />
        </mxCell>
        <mxCell id="vdwwtFvCIrxCooRe47AT-9" style="edgeStyle=orthogonalEdgeStyle;rounded=0;orthogonalLoop=1;jettySize=auto;html=1;entryX=0.5;entryY=0;entryDx=0;entryDy=0;" edge="1" parent="1" source="vdwwtFvCIrxCooRe47AT-7" target="vdwwtFvCIrxCooRe47AT-5">
          <mxGeometry relative="1" as="geometry">
            <mxPoint x="370" y="480" as="targetPoint" />
          </mxGeometry>
        </mxCell>
        <mxCell id="vdwwtFvCIrxCooRe47AT-11" style="edgeStyle=orthogonalEdgeStyle;rounded=0;orthogonalLoop=1;jettySize=auto;html=1;" edge="1" parent="1" source="vdwwtFvCIrxCooRe47AT-10" target="vdwwtFvCIrxCooRe47AT-5">
          <mxGeometry relative="1" as="geometry" />
        </mxCell>
        <mxCell id="vdwwtFvCIrxCooRe47AT-12" value="(name, queue)" style="edgeLabel;html=1;align=center;verticalAlign=middle;resizable=0;points=[];" vertex="1" connectable="0" parent="vdwwtFvCIrxCooRe47AT-11">
          <mxGeometry x="0.2264" y="-1" relative="1" as="geometry">
            <mxPoint x="12" as="offset" />
          </mxGeometry>
        </mxCell>
        <mxCell id="vdwwtFvCIrxCooRe47AT-40" value="&lt;b&gt;register to bus&lt;/b&gt;" style="edgeLabel;html=1;align=center;verticalAlign=middle;resizable=0;points=[];" vertex="1" connectable="0" parent="vdwwtFvCIrxCooRe47AT-11">
          <mxGeometry x="-0.8718" relative="1" as="geometry">
            <mxPoint x="-4" y="-7" as="offset" />
          </mxGeometry>
        </mxCell>
        <mxCell id="vdwwtFvCIrxCooRe47AT-10" value="Agent ..." style="rounded=0;whiteSpace=wrap;html=1;" vertex="1" parent="1">
          <mxGeometry x="544" y="370" width="120" height="60" as="geometry" />
        </mxCell>
        <mxCell id="vdwwtFvCIrxCooRe47AT-14" style="edgeStyle=orthogonalEdgeStyle;rounded=0;orthogonalLoop=1;jettySize=auto;html=1;exitX=0.5;exitY=0;exitDx=0;exitDy=0;" edge="1" parent="1" source="vdwwtFvCIrxCooRe47AT-7" target="vdwwtFvCIrxCooRe47AT-13">
          <mxGeometry relative="1" as="geometry" />
        </mxCell>
        <mxCell id="vdwwtFvCIrxCooRe47AT-41" value="function: how msgs are&amp;nbsp;&lt;div&gt;processed and returned&lt;/div&gt;" style="edgeLabel;html=1;align=center;verticalAlign=middle;resizable=0;points=[];" vertex="1" connectable="0" parent="vdwwtFvCIrxCooRe47AT-14">
          <mxGeometry x="-0.1736" relative="1" as="geometry">
            <mxPoint y="-18" as="offset" />
          </mxGeometry>
        </mxCell>
        <mxCell id="vdwwtFvCIrxCooRe47AT-13" value="handler:&lt;div&gt;- proc_msg&amp;lt;- preprocess(msg)&lt;/div&gt;&lt;div&gt;- llm(proc_msg)&lt;/div&gt;" style="ellipse;whiteSpace=wrap;html=1;" vertex="1" parent="1">
          <mxGeometry x="274" y="190" width="280" height="80" as="geometry" />
        </mxCell>
        <mxCell id="vdwwtFvCIrxCooRe47AT-17" style="edgeStyle=orthogonalEdgeStyle;rounded=0;orthogonalLoop=1;jettySize=auto;html=1;entryX=0;entryY=1;entryDx=0;entryDy=0;exitX=0.67;exitY=1.004;exitDx=0;exitDy=0;exitPerimeter=0;" edge="1" parent="1" source="vdwwtFvCIrxCooRe47AT-75" target="vdwwtFvCIrxCooRe47AT-15">
          <mxGeometry relative="1" as="geometry">
            <mxPoint x="218" y="732.8000000000001" as="sourcePoint" />
            <mxPoint x="146.2" y="690" as="targetPoint" />
          </mxGeometry>
        </mxCell>
        <mxCell id="vdwwtFvCIrxCooRe47AT-19" value="&lt;font style=&quot;color: rgb(255, 51, 51); font-size: 9px;&quot;&gt;send_msg&lt;/font&gt;" style="edgeLabel;html=1;align=center;verticalAlign=middle;resizable=0;points=[];" vertex="1" connectable="0" parent="vdwwtFvCIrxCooRe47AT-17">
          <mxGeometry x="-0.2021" y="1" relative="1" as="geometry">
            <mxPoint x="2" y="-31" as="offset" />
          </mxGeometry>
        </mxCell>
        <mxCell id="vdwwtFvCIrxCooRe47AT-15" value="Agent A" style="text;html=1;align=center;verticalAlign=middle;whiteSpace=wrap;rounded=0;strokeColor=default;" vertex="1" parent="1">
          <mxGeometry x="130" y="660" width="60" height="30" as="geometry" />
        </mxCell>
        <mxCell id="vdwwtFvCIrxCooRe47AT-16" value="Agent B" style="text;html=1;align=center;verticalAlign=middle;whiteSpace=wrap;rounded=0;strokeColor=default;" vertex="1" parent="1">
          <mxGeometry x="290" y="660" width="60" height="30" as="geometry" />
        </mxCell>
        <mxCell id="vdwwtFvCIrxCooRe47AT-33" style="edgeStyle=orthogonalEdgeStyle;rounded=0;orthogonalLoop=1;jettySize=auto;html=1;entryX=0;entryY=0.5;entryDx=0;entryDy=0;" edge="1" parent="1" source="vdwwtFvCIrxCooRe47AT-25" target="vdwwtFvCIrxCooRe47AT-38">
          <mxGeometry relative="1" as="geometry" />
        </mxCell>
        <mxCell id="vdwwtFvCIrxCooRe47AT-25" value="Agent A" style="text;html=1;align=center;verticalAlign=middle;whiteSpace=wrap;rounded=0;" vertex="1" parent="1">
          <mxGeometry x="490" y="650" width="60" height="30" as="geometry" />
        </mxCell>
        <mxCell id="vdwwtFvCIrxCooRe47AT-31" value="Agent C" style="text;html=1;align=center;verticalAlign=middle;whiteSpace=wrap;rounded=0;" vertex="1" parent="1">
          <mxGeometry x="520" y="730" width="60" height="30" as="geometry" />
        </mxCell>
        <mxCell id="vdwwtFvCIrxCooRe47AT-36" value="=&amp;gt; agents handle routing" style="text;html=1;align=center;verticalAlign=middle;whiteSpace=wrap;rounded=0;" vertex="1" parent="1">
          <mxGeometry x="250" y="770" width="120" height="30" as="geometry" />
        </mxCell>
        <mxCell id="vdwwtFvCIrxCooRe47AT-27" value="Agent B" style="text;html=1;align=center;verticalAlign=middle;whiteSpace=wrap;rounded=0;" vertex="1" parent="1">
          <mxGeometry x="650" y="650" width="60" height="30" as="geometry" />
        </mxCell>
        <mxCell id="vdwwtFvCIrxCooRe47AT-37" value="=&amp;gt; endless loop" style="text;html=1;align=center;verticalAlign=middle;whiteSpace=wrap;rounded=0;" vertex="1" parent="1">
          <mxGeometry x="110" y="770" width="120" height="30" as="geometry" />
        </mxCell>
        <mxCell id="vdwwtFvCIrxCooRe47AT-51" style="edgeStyle=orthogonalEdgeStyle;rounded=0;orthogonalLoop=1;jettySize=auto;html=1;entryX=1;entryY=0.5;entryDx=0;entryDy=0;dashed=1;" edge="1" parent="1" source="vdwwtFvCIrxCooRe47AT-38" target="vdwwtFvCIrxCooRe47AT-31">
          <mxGeometry relative="1" as="geometry" />
        </mxCell>
        <mxCell id="vdwwtFvCIrxCooRe47AT-52" style="edgeStyle=orthogonalEdgeStyle;rounded=0;orthogonalLoop=1;jettySize=auto;html=1;entryX=0;entryY=0.5;entryDx=0;entryDy=0;dashed=1;" edge="1" parent="1" source="vdwwtFvCIrxCooRe47AT-38" target="vdwwtFvCIrxCooRe47AT-27">
          <mxGeometry relative="1" as="geometry" />
        </mxCell>
        <mxCell id="vdwwtFvCIrxCooRe47AT-38" value="dynamic router" style="rounded=0;whiteSpace=wrap;html=1;" vertex="1" parent="1">
          <mxGeometry x="550" y="690" width="100" height="20" as="geometry" />
        </mxCell>
        <mxCell id="vdwwtFvCIrxCooRe47AT-47" value="&lt;font style=&quot;font-size: 9px;&quot;&gt;sender&lt;/font&gt;" style="rounded=0;whiteSpace=wrap;html=1;fillColor=#d5e8d4;strokeColor=#82b366;" vertex="1" parent="1">
          <mxGeometry x="263" y="647" width="40" height="20" as="geometry" />
        </mxCell>
        <mxCell id="vdwwtFvCIrxCooRe47AT-48" value="&lt;font style=&quot;font-size: 9px;&quot;&gt;receiver&lt;/font&gt;" style="rounded=0;whiteSpace=wrap;html=1;fillColor=#f8cecc;strokeColor=#b85450;" vertex="1" parent="1">
          <mxGeometry x="341" y="648" width="40" height="20" as="geometry" />
        </mxCell>
        <mxCell id="vdwwtFvCIrxCooRe47AT-42" value="&lt;font style=&quot;font-size: 9px;&quot;&gt;sender&lt;/font&gt;" style="rounded=0;whiteSpace=wrap;html=1;fillColor=#f8cecc;strokeColor=#b85450;" vertex="1" parent="1">
          <mxGeometry x="100" y="647" width="40" height="20" as="geometry" />
        </mxCell>
        <mxCell id="vdwwtFvCIrxCooRe47AT-43" value="&lt;font style=&quot;font-size: 9px;&quot;&gt;receiver&lt;/font&gt;" style="rounded=0;whiteSpace=wrap;html=1;fillColor=#d5e8d4;strokeColor=#82b366;" vertex="1" parent="1">
          <mxGeometry x="178" y="648" width="40" height="20" as="geometry" />
        </mxCell>
        <mxCell id="vdwwtFvCIrxCooRe47AT-59" value="" style="group" vertex="1" connectable="0" parent="1">
          <mxGeometry x="630" y="330" width="60" height="50" as="geometry" />
        </mxCell>
        <mxCell id="vdwwtFvCIrxCooRe47AT-57" value="" style="group" vertex="1" connectable="0" parent="vdwwtFvCIrxCooRe47AT-59">
          <mxGeometry y="30" width="60" height="20" as="geometry" />
        </mxCell>
        <mxCell id="vdwwtFvCIrxCooRe47AT-54" value="" style="rounded=0;whiteSpace=wrap;html=1;" vertex="1" parent="vdwwtFvCIrxCooRe47AT-57">
          <mxGeometry width="20" height="20" as="geometry" />
        </mxCell>
        <mxCell id="vdwwtFvCIrxCooRe47AT-55" value="" style="rounded=0;whiteSpace=wrap;html=1;" vertex="1" parent="vdwwtFvCIrxCooRe47AT-57">
          <mxGeometry x="20" width="20" height="20" as="geometry" />
        </mxCell>
        <mxCell id="vdwwtFvCIrxCooRe47AT-56" value="" style="rounded=0;whiteSpace=wrap;html=1;" vertex="1" parent="vdwwtFvCIrxCooRe47AT-57">
          <mxGeometry x="40" width="20" height="20" as="geometry" />
        </mxCell>
        <mxCell id="vdwwtFvCIrxCooRe47AT-58" value="queue" style="text;html=1;align=center;verticalAlign=middle;whiteSpace=wrap;rounded=0;" vertex="1" parent="vdwwtFvCIrxCooRe47AT-59">
          <mxGeometry width="60" height="30" as="geometry" />
        </mxCell>
        <mxCell id="vdwwtFvCIrxCooRe47AT-63" value="" style="group" vertex="1" connectable="0" parent="1">
          <mxGeometry x="450" y="330" width="60" height="50" as="geometry" />
        </mxCell>
        <mxCell id="vdwwtFvCIrxCooRe47AT-64" value="" style="group" vertex="1" connectable="0" parent="vdwwtFvCIrxCooRe47AT-63">
          <mxGeometry y="30" width="60" height="20" as="geometry" />
        </mxCell>
        <mxCell id="vdwwtFvCIrxCooRe47AT-65" value="" style="rounded=0;whiteSpace=wrap;html=1;" vertex="1" parent="vdwwtFvCIrxCooRe47AT-64">
          <mxGeometry width="20" height="20" as="geometry" />
        </mxCell>
        <mxCell id="vdwwtFvCIrxCooRe47AT-66" value="" style="rounded=0;whiteSpace=wrap;html=1;" vertex="1" parent="vdwwtFvCIrxCooRe47AT-64">
          <mxGeometry x="20" width="20" height="20" as="geometry" />
        </mxCell>
        <mxCell id="vdwwtFvCIrxCooRe47AT-67" value="" style="rounded=0;whiteSpace=wrap;html=1;" vertex="1" parent="vdwwtFvCIrxCooRe47AT-64">
          <mxGeometry x="40" width="20" height="20" as="geometry" />
        </mxCell>
        <mxCell id="vdwwtFvCIrxCooRe47AT-68" value="queue" style="text;html=1;align=center;verticalAlign=middle;whiteSpace=wrap;rounded=0;" vertex="1" parent="vdwwtFvCIrxCooRe47AT-63">
          <mxGeometry width="60" height="30" as="geometry" />
        </mxCell>
        <mxCell id="vdwwtFvCIrxCooRe47AT-69" value="" style="group" vertex="1" connectable="0" parent="1">
          <mxGeometry x="263" y="330" width="60" height="50" as="geometry" />
        </mxCell>
        <mxCell id="vdwwtFvCIrxCooRe47AT-70" value="" style="group" vertex="1" connectable="0" parent="vdwwtFvCIrxCooRe47AT-69">
          <mxGeometry y="30" width="60" height="20" as="geometry" />
        </mxCell>
        <mxCell id="vdwwtFvCIrxCooRe47AT-71" value="" style="rounded=0;whiteSpace=wrap;html=1;" vertex="1" parent="vdwwtFvCIrxCooRe47AT-70">
          <mxGeometry width="20" height="20" as="geometry" />
        </mxCell>
        <mxCell id="vdwwtFvCIrxCooRe47AT-72" value="" style="rounded=0;whiteSpace=wrap;html=1;" vertex="1" parent="vdwwtFvCIrxCooRe47AT-70">
          <mxGeometry x="20" width="20" height="20" as="geometry" />
        </mxCell>
        <mxCell id="vdwwtFvCIrxCooRe47AT-73" value="" style="rounded=0;whiteSpace=wrap;html=1;" vertex="1" parent="vdwwtFvCIrxCooRe47AT-70">
          <mxGeometry x="40" width="20" height="20" as="geometry" />
        </mxCell>
        <mxCell id="vdwwtFvCIrxCooRe47AT-74" value="queue" style="text;html=1;align=center;verticalAlign=middle;whiteSpace=wrap;rounded=0;" vertex="1" parent="vdwwtFvCIrxCooRe47AT-69">
          <mxGeometry width="60" height="30" as="geometry" />
        </mxCell>
        <mxCell id="vdwwtFvCIrxCooRe47AT-77" style="edgeStyle=orthogonalEdgeStyle;rounded=0;orthogonalLoop=1;jettySize=auto;html=1;exitX=0.5;exitY=1;exitDx=0;exitDy=0;entryX=0.661;entryY=-0.049;entryDx=0;entryDy=0;entryPerimeter=0;" edge="1" parent="1" source="vdwwtFvCIrxCooRe47AT-16" target="vdwwtFvCIrxCooRe47AT-75">
          <mxGeometry relative="1" as="geometry" />
        </mxCell>
        <mxCell id="vdwwtFvCIrxCooRe47AT-75" value="Bus" style="rounded=0;whiteSpace=wrap;html=1;rotation=90;" vertex="1" parent="1">
          <mxGeometry x="183" y="700" width="120" height="20" as="geometry" />
        </mxCell>
        <mxCell id="vdwwtFvCIrxCooRe47AT-78" style="rounded=0;orthogonalLoop=1;jettySize=auto;html=1;entryX=0.004;entryY=0.661;entryDx=0;entryDy=0;exitX=0.5;exitY=0;exitDx=0;exitDy=0;entryPerimeter=0;" edge="1" parent="1" source="vdwwtFvCIrxCooRe47AT-75" target="vdwwtFvCIrxCooRe47AT-16">
          <mxGeometry relative="1" as="geometry" />
        </mxCell>
        <mxCell id="vdwwtFvCIrxCooRe47AT-20" value="&lt;font style=&quot;color: rgb(102, 255, 102); font-size: 9px;&quot;&gt;send_msg&lt;/font&gt;" style="edgeLabel;html=1;align=center;verticalAlign=middle;resizable=0;points=[];" vertex="1" connectable="0" parent="1">
          <mxGeometry x="320" y="710" as="geometry" />
        </mxCell>
      </root>
    </mxGraphModel>
  </diagram>
</mxfile>
